<svg xmlns="http://www.w3.org/2000/svg" width="200" height="200" viewBox="0 0 200 200"><g><path fill="#14a8e9" d="M0-.001h200v200h-200z"/><path d="M166.737 7.247l-32.073.076-.253 74.515 8.42-.021.099-28.945 21.302-.053 21.529 28.897 10.342-.025-22.81-30.383c11.739-2.152 20.288-9.423 20.33-21.882.047-13.401-10.472-22.219-26.886-22.179zm-59.241.14l-8.42.018-.255 74.518 8.42-.021.255-74.515zm-71.93.17l-25.88.062-.255 74.518 25.88-.062c23.446-.055 39.692-16.375 39.765-37.455.071-21.081-16.065-37.117-39.51-37.062zm130.51 7.469c12.04-.026 19.053 5.493 19.021 14.746-.033 9.684-8.044 15.461-19.228 15.488l-22.913.053.103-30.231 23.017-.055zm-130.535.312c18.867-.044 30.86 12.901 30.803 29.508-.056 16.624-12.14 29.42-31.005 29.464l-17.46.041.2-58.97 17.462-.044zm23.997 78.931c-28.264.068-49.263 21.42-49.354 48.585v.276c-.095 27.831 21.306 48.157 47.96 48.093 20.65-.049 32.533-9.006 41.372-21.145l-19.403-13.798c-5.63 6.799-11.373 11.337-21.099 11.359-13.052.031-22.208-10.863-22.16-24.847v-.257c.046-13.59 9.278-24.667 22.33-24.698 8.936-.022 15.043 4.23 20.353 10.886l19.501-15.095c-8.21-11.444-20.446-19.403-39.501-19.359zm132.983 1.552l-26.257.062-.179 52.461c-.047 13.06-6.856 19.193-17.251 19.219-10.392.024-17.182-6.352-17.136-19.804l.177-51.792-26.241.062-.179 52.339c-.1 29.154 16.509 42.566 43.023 42.504 26.517-.065 43.765-13.282 43.868-43.377l.175-51.673z"/></g></svg>