<svg xmlns="http://www.w3.org/2000/svg" width="200" height="200" viewBox="0 0 200 200"><g><path fill="#14a8e9" d="M0 0h200v200h-200z"/><path d="M117.08 6.9l.181 54.853 7.694.018-.152-46.371 26.206.069.131 40.993 7.699.021-.135-40.996 25.568.064.149 45.832 7.694.021v-.003l-.175-54.314-74.862-.188zm-107.828.161l.158 48.461c.071 22.422 9.895 35.613 25.94 35.653h.276c12.708.033 19.103-7.207 22.803-18.617 3.643 8.336 10.086 14.539 20.913 14.565h.278c6.421.013 11.354-2.252 15.095-6.009 5.474-5.497 8.375-13.799 8.337-25.616l-.156-48.197-93.645-.239zm20.966 25.432l17.253.044.062 19.866c.03 8.725-3.3 12.741-8.397 12.728h-.255c-5.491-.011-8.575-4.582-8.597-12.493l-.067-20.144zm35.451.087l16.441.041.055 16.914c.028 7.794-2.904 11.812-7.984 11.798h-.257c-5.493-.011-8.175-4.461-8.202-12.374l-.053-16.376v-.003zm88.921 31.2c-21.607-.054-38.561 15.885-38.493 37.565.046 13.631 5.323 22.229 13.253 30.094l5.437-5.568c-6.858-7.221-10.842-13.985-10.875-24.282-.055-16.533 13.491-29.056 30.913-29.014 17.44.044 30.845 12.531 30.9 29.168.033 10.194-4.215 17.267-10.186 23.575l6.218 5.821c7.035-7.498 11.825-15.641 11.782-29.272-.071-22.113-17.562-38.031-38.95-38.087zm-144.994 49.994l.25 76.258 22.071.055-.165-50.481 14.861.039.145 45.106 20.475.053-.147-45.108 14.167.035.163 49.808 22.071.053-.246-75.583-93.645-.234zm174.957 18.668l.08 25.223-67.062-.17.028 8.585 67.062.17.083 25.205 7.798.018-.191-59.014-7.798-.018z"/></g></svg>