<?xml version="1.0" encoding="UTF-8" standalone="no"?>
<!-- Created with Inkscape (http://www.inkscape.org/) -->

<svg
   xmlns:dc="http://purl.org/dc/elements/1.1/"
   xmlns:cc="http://creativecommons.org/ns#"
   xmlns:rdf="http://www.w3.org/1999/02/22-rdf-syntax-ns#"
   xmlns:svg="http://www.w3.org/2000/svg"
   xmlns="http://www.w3.org/2000/svg"
   xmlns:sodipodi="http://sodipodi.sourceforge.net/DTD/sodipodi-0.dtd"
   xmlns:inkscape="http://www.inkscape.org/namespaces/inkscape"
   id="svg4320"
   version="1.1"
   inkscape:version="0.91pre2+osxmenu r12825"
   xml:space="preserve"
   width="200"
   height="200"
   viewBox="0 0 199.99999 200.00001"
   sodipodi:docname="logo.svg"><metadata
     id="metadata4326"><rdf:RDF><cc:Work
         rdf:about=""><dc:format>image/svg+xml</dc:format><dc:type
           rdf:resource="http://purl.org/dc/dcmitype/StillImage" /><dc:title></dc:title></cc:Work></rdf:RDF></metadata><defs
     id="defs4324" /><sodipodi:namedview
     pagecolor="#ffffff"
     bordercolor="#666666"
     borderopacity="1"
     objecttolerance="10"
     gridtolerance="10"
     guidetolerance="10"
     inkscape:pageopacity="0"
     inkscape:pageshadow="2"
     inkscape:window-width="1160"
     inkscape:window-height="725"
     id="namedview4322"
     showgrid="false"
     fit-margin-top="0"
     fit-margin-left="0"
     fit-margin-right="0"
     fit-margin-bottom="0"
     inkscape:zoom="2.2871646"
     inkscape:cx="118.81826"
     inkscape:cy="111.26133"
     inkscape:window-x="0"
     inkscape:window-y="23"
     inkscape:window-maximized="0"
     inkscape:current-layer="g4328" /><g
     id="g4328"
     inkscape:groupmode="layer"
     inkscape:label="Direct-Cube-finale"
     transform="matrix(1.25,0,0,-1.25,-146.94065,674.07388)"><path
       d="m 129.4785,419.87654 -0.22208,78.76637 68.54145,39.57328 68.0982,-39.574 0.2228,-78.76665 -68.54227,-39.57354 -68.0981,39.57454 z"
       style="fill:#64dc34;fill-opacity:1;fill-rule:nonzero;stroke:#272525;stroke-width:1.80487645;stroke-linecap:butt;stroke-linejoin:miter;stroke-miterlimit:2.61312604;stroke-dasharray:none;stroke-opacity:1"
       id="path4336"
       inkscape:connector-curvature="0" /><path
       d="m 261.41036,496.02336 -63.60094,36.96076 -64.01541,-36.95977 0.208,-73.56525 63.60094,-36.96085 64.01541,36.96003 -0.208,73.56508 z"
       style="fill:#373535;fill-opacity:1;fill-rule:nonzero;stroke:#272525;stroke-width:3.60957265;stroke-linecap:butt;stroke-linejoin:miter;stroke-miterlimit:10.00000286;stroke-dasharray:none;stroke-opacity:1"
       id="path4338"
       inkscape:connector-curvature="0" /><path
       d="m 197.60575,385.50158 -63.60022,36.96004 -0.20791,73.55912 63.59914,-36.96049 0.20899,-73.55867 z"
       style="fill:#272525;fill-opacity:1;fill-rule:nonzero;stroke:none"
       id="path4340"
       inkscape:connector-curvature="0" /><path
       d="m 197.39676,459.06025 -63.59914,36.96049 64.01514,36.95932 63.60022,-36.96004 -64.01622,-36.95977 z"
       style="fill:#272525;fill-opacity:1;fill-rule:nonzero;stroke:none"
       id="path4342"
       inkscape:connector-curvature="0" /><path
       d="m 261.41298,496.02002 0.2089,-73.55912 -64.01613,-36.95932 -0.20899,73.55867 64.01622,36.95977 z"
       style="fill:#272525;fill-opacity:1;fill-rule:nonzero;stroke:none"
       id="path4344"
       inkscape:connector-curvature="0" /><path
       d="m 179.5985,516.08491 18.89105,10.90723 5.5536,-3.22669 c 5.99974,-3.48703 5.67254,-8.11152 0.35248,-11.18291 -5.32511,-3.07463 -13.24515,-3.21098 -19.24462,0.27577 l -5.55251,3.2266 z m 26.93688,9.11967 0,0 -8.23073,4.78287 -23.87118,-13.7818 8.23073,-4.78286 c 7.4562,-4.33321 17.82055,-4.31453 24.5736,-0.41592 6.75306,3.89906 6.75306,9.86451 -0.70242,14.19771 z"
       style="fill:#64dc34;fill-opacity:1;fill-rule:nonzero;stroke:#64dc34;stroke-width:0.45119658;stroke-linecap:butt;stroke-linejoin:miter;stroke-miterlimit:2.61312604;stroke-dasharray:none;stroke-opacity:1"
       id="path4346"
       inkscape:connector-curvature="0" /><path
       d="m 229.41078,511.91062 -2.67722,1.55627 -23.87119,-13.7818 2.67722,-1.55627 23.87119,13.7818 z"
       style="fill:#64dc34;fill-opacity:1;fill-rule:nonzero;stroke:#64dc34;stroke-width:0.45119658;stroke-linecap:butt;stroke-linejoin:miter;stroke-miterlimit:2.61312604;stroke-dasharray:none;stroke-opacity:1"
       id="path4348"
       inkscape:connector-curvature="0" /><path
       d="m 228.55233,498.30271 9.68494,5.5915 7.31958,-4.2537 c 3.82804,-2.22566 4.29151,-4.54905 1.32715,-6.26035 -3.10207,-1.79107 -7.48878,-1.37922 -11.04557,0.68789 l -7.2861,4.23466 z m 19.69762,2.65926 0,0 -10.19939,5.92755 -23.87046,-13.78198 2.67821,-1.55626 9.27236,5.35353 6.77499,-3.93669 -2.39523,-9.35068 3.28878,-1.91154 2.46407,9.86424 c 4.41144,-1.77519 9.44427,-2.00972 13.43546,0.29472 4.29332,2.47842 3.77173,6.0639 -1.44879,9.09711 z"
       style="fill:#64dc34;fill-opacity:1;fill-rule:nonzero;stroke:#64dc34;stroke-width:0.45119658;stroke-linecap:butt;stroke-linejoin:miter;stroke-miterlimit:2.61312604;stroke-dasharray:none;stroke-opacity:1"
       id="path4350"
       inkscape:connector-curvature="0" /><path
       d="m 186.45713,504.67108 c -8.98864,5.22359 -22.46814,5.15095 -31.16956,0.12661 l -0.088,-0.0507 c -8.91582,-5.14734 -8.61524,-12.88464 -0.13861,-17.81053 6.56699,-3.81649 13.19678,-4.35549 19.87666,-3.74024 l -1.7502,6.1554 c -3.9569,-0.21865 -7.22807,0.003 -10.32112,1.80037 -4.15083,2.41237 -3.57708,6.13041 0.90249,8.71675 l 0.0826,0.0476 c 4.35342,2.51344 10.81816,2.85932 14.96899,0.44687 2.84191,-1.65138 3.42251,-3.57222 2.98205,-5.7912 l 11.00667,-0.81116 c 1.04876,3.64485 -0.29265,7.38843 -6.35195,10.91029 z"
       style="fill:#64dc34;fill-opacity:1;fill-rule:nonzero;stroke:#64dc34;stroke-width:0.45119658;stroke-linecap:butt;stroke-linejoin:miter;stroke-miterlimit:2.61312604;stroke-dasharray:none;stroke-opacity:1"
       id="path4352"
       inkscape:connector-curvature="0" /><path
       d="m 228.15221,479.74725 -8.35075,4.85271 -16.80499,-9.70262 c -4.18431,-2.41498 -8.30319,-2.29163 -11.60965,-0.37061 -3.30457,1.92074 -3.42278,4.36153 0.8866,6.8497 l 16.59203,9.57909 -8.34542,4.84991 -16.76665,-9.68042 c -9.3394,-5.39189 -8.35228,-10.95803 0.0793,-15.85857 8.43359,-4.90054 18.12547,-5.64212 27.76646,-0.0763 l 16.55305,9.55706 z"
       style="fill:#64dc34;fill-opacity:1;fill-rule:nonzero;stroke:#64dc34;stroke-width:0.45119658;stroke-linecap:butt;stroke-linejoin:miter;stroke-miterlimit:2.61312604;stroke-dasharray:none;stroke-opacity:1"
       id="path4354"
       inkscape:connector-curvature="0" /><path
       d="m 259.36247,472.17031 -0.0565,20.08718 -24.17611,-13.95804 0.0583,-20.28543 2.4851,1.4348 -0.0495,17.14908 8.46354,4.88592 0.0422,-15.16183 2.48609,1.43507 -0.0432,15.16156 8.25708,4.76699 0.0478,-16.95029 2.4851,1.43499 z"
       style="fill:#64dc34;fill-opacity:1;fill-rule:nonzero;stroke:#64dc34;stroke-width:0.45119658;stroke-linecap:butt;stroke-linejoin:miter;stroke-miterlimit:2.61312604;stroke-dasharray:none;stroke-opacity:1"
       id="path4356"
       inkscape:connector-curvature="0" /><path
       d="m 259.82242,457.4474 c -0.023,8.17812 -5.67154,10.79795 -12.57882,6.81064 -6.97785,-4.02883 -12.45375,-13.1106 -12.43173,-21.12909 0.0149,-5.04095 1.71924,-7.23701 4.28023,-8.66433 l 1.75633,3.08132 c -2.21465,1.38977 -3.50138,3.14962 -3.51184,6.9579 -0.0176,6.11434 4.35702,13.29171 9.98353,16.54086 5.63211,3.25169 9.96071,1.13675 9.97831,-5.01595 0.0107,-3.76993 -1.36136,-7.18585 -3.2895,-10.64111 l 2.00828,-0.99146 c 2.27195,4.09578 3.81929,8.01028 3.80521,13.05122 z"
       style="fill:#64dc34;fill-opacity:1;fill-rule:nonzero;stroke:#64dc34;stroke-width:0.45119658;stroke-linecap:butt;stroke-linejoin:miter;stroke-miterlimit:2.61312604;stroke-dasharray:none;stroke-opacity:1"
       id="path4358"
       inkscape:connector-curvature="0" /><path
       d="m 259.49981,424.06599 -0.0616,21.82537 -2.51858,-1.45403 0.0264,-9.32858 -21.65753,-12.50383 0.009,-3.17525 21.65752,12.5041 0.0264,-9.32172 2.51858,1.45394 z"
       style="fill:#64dc34;fill-opacity:1;fill-rule:nonzero;stroke:#64dc34;stroke-width:0.45119658;stroke-linecap:butt;stroke-linejoin:miter;stroke-miterlimit:2.61312604;stroke-dasharray:none;stroke-opacity:1"
       id="path4360"
       inkscape:connector-curvature="0" /><path
       d="m 207.07817,452.54254 5.57129,3.21685 0.0202,-7.34774 c 0.01,-3.2266 -1.06546,-5.3382 -2.71151,-6.28824 l -0.0828,-0.0484 c -1.7732,-1.02395 -2.76872,0.0916 -2.77594,3.01796 l -0.0212,7.44953 z m 11.44821,6.61003 0,0 5.3095,3.06597 0.0177,-6.25494 c 0.009,-2.88188 -0.93777,-4.91976 -2.57841,-5.86646 l -0.0829,-0.0481 c -1.77392,-1.02448 -2.64031,0.1202 -2.64897,3.04648 l -0.0169,6.05705 z m 12.07303,-1.48336 0,0 -0.0501,17.82515 -30.24263,-17.45986 0.0512,-17.92189 c 0.0228,-8.2929 3.19546,-11.33821 8.3771,-8.34641 l 0.0891,0.0517 c 4.104,2.36915 6.16948,6.24962 7.36461,11.16983 1.17636,-2.40551 3.25701,-3.49569 6.75378,-1.47614 l 0.0898,0.0512 c 2.07352,1.19756 3.66688,2.9621 4.875,5.05502 1.76779,3.06209 2.70447,6.68087 2.6922,11.05143 z"
       style="fill:#64dc34;fill-opacity:1;fill-rule:nonzero;stroke:#64dc34;stroke-width:0.45119658;stroke-linecap:butt;stroke-linejoin:miter;stroke-miterlimit:2.61312604;stroke-dasharray:none;stroke-opacity:1"
       id="path4362"
       inkscape:connector-curvature="0" /><path
       d="m 230.73964,408.07639 -0.0793,27.95244 -30.24253,-17.4604 0.081,-28.20213 7.12756,4.11554 -0.053,18.66907 4.79929,2.77053 0.0468,-16.68227 6.61183,3.81721 -0.0473,16.68227 4.57513,2.64194 0.053,-18.42019 7.12755,4.11599 z"
       style="fill:#64dc34;fill-opacity:1;fill-rule:nonzero;stroke:#64dc34;stroke-width:0.45119658;stroke-linecap:butt;stroke-linejoin:miter;stroke-miterlimit:2.61312604;stroke-dasharray:none;stroke-opacity:1"
       id="path4364"
       inkscape:connector-curvature="0" /><path
       d="m 190.9331,396.55301 -50.88054,29.56854 -0.16721,58.84857 50.88017,-29.56853 0.16758,-58.84858 z"
       style="fill:#373535;fill-opacity:1;fill-rule:nonzero;stroke:#373535;stroke-width:0.45119658;stroke-linecap:butt;stroke-linejoin:miter;stroke-miterlimit:2.61312604;stroke-dasharray:none;stroke-opacity:1"
       id="path4366"
       inkscape:connector-curvature="0" /><path
       d="m 139.93976,426.1026 50.71296,29.28031 0.16731,-58.84749 -50.88027,29.56718 z"
       style="fill:#373535;fill-opacity:1;fill-rule:nonzero;stroke:#373535;stroke-width:0.45119658;stroke-linecap:butt;stroke-linejoin:miter;stroke-miterlimit:2.61312604;stroke-dasharray:none;stroke-opacity:1"
       id="path4376"
       inkscape:connector-curvature="0" /><path
       d="m 139.93976,426.1026 -0.16748,58.84957 50.88044,-29.56926 -50.71296,-29.28031 z"
       style="fill:#373535;fill-opacity:1;fill-rule:nonzero;stroke:#373535;stroke-width:0.45119658;stroke-linecap:butt;stroke-linejoin:miter;stroke-miterlimit:2.61312604;stroke-dasharray:none;stroke-opacity:1"
       id="path4378"
       inkscape:connector-curvature="0" /><path
       d="m 139.95339,426.30347 50.71287,29.28022 0.1673,-58.84749 -50.88017,29.56727 z"
       style="fill:#676a6b;fill-opacity:1;fill-rule:nonzero;stroke:none"
       id="path4380"
       inkscape:connector-curvature="0" /><path
       d="m 139.95339,426.30347 -0.16758,58.84957 50.88045,-29.56935 -50.71287,-29.28022 z"
       style="fill:#aaa9a7;fill-opacity:1;fill-rule:nonzero;stroke:none"
       id="path4382"
       inkscape:connector-curvature="0" /></g></svg>