<?xml version="1.0" encoding="UTF-8" standalone="no"?>
<!-- Created with Inkscape (http://www.inkscape.org/) -->

<svg
   xmlns:dc="http://purl.org/dc/elements/1.1/"
   xmlns:cc="http://creativecommons.org/ns#"
   xmlns:rdf="http://www.w3.org/1999/02/22-rdf-syntax-ns#"
   xmlns:svg="http://www.w3.org/2000/svg"
   xmlns="http://www.w3.org/2000/svg"
   xmlns:sodipodi="http://sodipodi.sourceforge.net/DTD/sodipodi-0.dtd"
   xmlns:inkscape="http://www.inkscape.org/namespaces/inkscape"
   id="svg4320"
   version="1.1"
   inkscape:version="0.91pre2+osxmenu r12825"
   xml:space="preserve"
   width="200"
   height="200"
   viewBox="0 0 199.99999 200.00001"
   sodipodi:docname="logo.svg"><metadata
     id="metadata4326"><rdf:RDF><cc:Work
         rdf:about=""><dc:format>image/svg+xml</dc:format><dc:type
           rdf:resource="http://purl.org/dc/dcmitype/StillImage" /><dc:title /></cc:Work></rdf:RDF></metadata><defs
     id="defs4324" /><sodipodi:namedview
     pagecolor="#ffffff"
     bordercolor="#666666"
     borderopacity="1"
     objecttolerance="10"
     gridtolerance="10"
     guidetolerance="10"
     inkscape:pageopacity="0"
     inkscape:pageshadow="2"
     inkscape:window-width="1160"
     inkscape:window-height="725"
     id="namedview4322"
     showgrid="false"
     fit-margin-top="0"
     fit-margin-left="0"
     fit-margin-right="0"
     fit-margin-bottom="0"
     inkscape:zoom="2.2871646"
     inkscape:cx="52.360428"
     inkscape:cy="106.94832"
     inkscape:window-x="0"
     inkscape:window-y="23"
     inkscape:window-maximized="0"
     inkscape:current-layer="g4328" /><g
     id="g4328"
     inkscape:groupmode="layer"
     inkscape:label="Direct-Cube-finale"
     transform="matrix(1.25,0,0,-1.25,-146.94065,674.07388)"><path
       d="m 129.4785,419.87654 -0.22208,78.76637 68.54145,39.57328 68.0982,-39.574 0.2228,-78.76665 -68.54227,-39.57354 -68.0981,39.57454 z"
       style="fill:#64dc34;fill-opacity:1;fill-rule:nonzero;stroke:none;stroke-width:1.80487645;stroke-linecap:butt;stroke-linejoin:miter;stroke-miterlimit:2.61312604;stroke-dasharray:none;stroke-opacity:1"
       id="path4336"
       inkscape:connector-curvature="0" /><path
       style="color:#000000;font-style:normal;font-variant:normal;font-weight:normal;font-stretch:normal;font-size:medium;line-height:normal;font-family:sans-serif;text-indent:0;text-align:start;text-decoration:none;text-decoration-line:none;text-decoration-style:solid;text-decoration-color:#000000;letter-spacing:normal;word-spacing:normal;text-transform:none;direction:ltr;block-progression:tb;writing-mode:lr-tb;baseline-shift:baseline;text-anchor:start;white-space:normal;clip-rule:nonzero;display:inline;overflow:visible;visibility:visible;opacity:1;isolation:auto;mix-blend-mode:normal;color-interpolation:sRGB;color-interpolation-filters:linearRGB;solid-color:#000000;solid-opacity:1;fill:#2e3436;fill-opacity:1;fill-rule:nonzero;stroke:none;stroke-width:1.80487645;stroke-linecap:butt;stroke-linejoin:miter;stroke-miterlimit:2.61312604;stroke-dasharray:none;stroke-dashoffset:0;stroke-opacity:1;color-rendering:auto;image-rendering:auto;shape-rendering:auto;text-rendering:auto;enable-background:accumulate"
       d="m 197.57422,379.25977 -68.9961,40.0957 -0.002,0.51758 -0.22461,79.28906 69.44727,40.09766 68.99805,-40.09766 0.22656,-79.80664 -69.44922,-40.0957 z m 0.004,2.08593 67.63672,39.05078 -0.2207,77.72461 -67.19726,39.05274 -67.63672,-39.05078 0.21875,-77.72657 67.19921,-39.05078 z"
       id="path4352"
       inkscape:connector-curvature="0" /><path
       style="color:#000000;font-style:normal;font-variant:normal;font-weight:normal;font-stretch:normal;font-size:medium;line-height:normal;font-family:sans-serif;text-indent:0;text-align:start;text-decoration:none;text-decoration-line:none;text-decoration-style:solid;text-decoration-color:#000000;letter-spacing:normal;word-spacing:normal;text-transform:none;direction:ltr;block-progression:tb;writing-mode:lr-tb;baseline-shift:baseline;text-anchor:start;white-space:normal;clip-rule:nonzero;display:inline;overflow:visible;visibility:visible;opacity:1;isolation:auto;mix-blend-mode:normal;color-interpolation:sRGB;color-interpolation-filters:linearRGB;solid-color:#000000;solid-opacity:1;fill:#2e3436;fill-opacity:1;fill-rule:nonzero;stroke:none;stroke-width:3.60957289;stroke-linecap:butt;stroke-linejoin:miter;stroke-miterlimit:10.00000286;stroke-dasharray:none;stroke-dashoffset:0;stroke-opacity:1;color-rendering:auto;image-rendering:auto;shape-rendering:auto;text-rendering:auto;enable-background:accumulate"
       d="m 197.59961,383.41211 -65.39844,38.00586 0.23828,75.9082 65.37305,37.74414 65.40234,-38.00586 0,-0.0762 0.21289,-75.49023 -0.004,-0.004 0,-0.0781 -65.82422,-38.00391 z"
       id="path4338"
       inkscape:connector-curvature="0"
       sodipodi:nodetypes="ccccccccccc" /><path
       style="fill:#64dc34;fill-opacity:1;fill-rule:nonzero;stroke:#64dc34;stroke-width:0.56399572;stroke-linecap:butt;stroke-linejoin:miter;stroke-miterlimit:2.61312604;stroke-dasharray:none;stroke-opacity:1"
       d="M 100.93945 11.589844 L 71.101562 28.816406 L 81.388672 34.794922 C 90.708921 40.211434 103.66611 40.187715 112.10742 35.314453 C 120.54875 30.440628 120.54787 22.984859 111.22852 17.568359 L 100.93945 11.589844 z M 101.17188 15.333984 L 108.11328 19.367188 C 115.61296 23.725975 115.20476 29.506466 108.55469 33.345703 C 101.8983 37.18899 91.997384 37.36039 84.498047 33.001953 L 77.556641 28.966797 L 101.17188 15.333984 z M 136.47656 32.240234 L 106.63672 49.466797 L 109.98438 51.412109 L 139.82227 34.185547 L 136.47656 32.240234 z M 66.515625 38.351562 C 59.53921 38.34313 52.606356 39.93596 47.167969 43.076172 L 47.058594 43.140625 C 35.913819 49.5748 36.288979 59.244982 46.884766 65.402344 C 55.093503 70.172956 63.380619 70.847187 71.730469 70.078125 L 69.542969 62.384766 C 64.596844 62.658078 60.50889 62.381478 56.642578 60.134766 C 51.454041 57.119303 52.170069 52.471206 57.769531 49.238281 L 57.873047 49.177734 C 63.314822 46.035935 71.395447 45.603578 76.583984 48.619141 C 80.136372 50.683366 80.863075 53.08565 80.3125 55.859375 L 94.070312 56.873047 C 95.381262 52.316985 93.704984 47.6367 86.130859 43.234375 C 80.51296 39.969631 73.49204 38.359995 66.515625 38.351562 z M 150.62305 40.462891 L 120.78516 57.689453 L 124.13281 59.634766 L 135.72266 52.943359 L 144.19141 57.863281 L 141.19727 69.552734 L 145.30859 71.941406 L 148.38867 59.611328 C 153.90297 61.830315 160.19461 62.122737 165.18359 59.242188 C 170.55024 56.144163 169.89674 51.662606 163.37109 47.871094 L 150.62305 40.462891 z M 150.85547 44.207031 L 160.00586 49.523438 C 164.79091 52.305512 165.36951 55.210485 161.66406 57.349609 C 157.78648 59.588447 152.30341 59.072169 147.85742 56.488281 L 138.75 51.195312 L 150.85547 44.207031 z M 103.70898 54.316406 L 82.751953 66.417969 C 71.077704 73.157831 72.310135 80.11456 82.849609 86.240234 C 93.391596 92.365909 105.50736 93.293212 117.55859 86.335938 L 138.25 74.390625 L 127.81055 68.324219 L 106.80469 80.453125 C 101.5743 83.47185 96.426044 83.31729 92.292969 80.916016 C 88.162256 78.515091 88.013666 75.463728 93.400391 72.353516 L 114.14062 60.378906 L 103.70898 54.316406 z M 177.19141 58.751953 L 146.97266 76.199219 L 147.04492 101.55664 L 150.15039 99.763672 L 150.08984 78.326172 L 160.66797 72.21875 L 160.7207 91.171875 L 163.82812 89.376953 L 163.77539 70.425781 L 174.0957 64.466797 L 174.15625 85.654297 L 177.26172 83.861328 L 177.19141 58.751953 z M 141.24609 79.705078 L 103.44336 101.53125 L 103.50586 123.93359 C 103.53436 134.29972 107.50147 138.10498 113.97852 134.36523 L 114.08984 134.30078 C 119.21984 131.33934 121.80101 126.49011 123.29492 120.33984 C 124.76537 123.34673 127.36732 124.70803 131.73828 122.18359 L 131.84961 122.12109 C 134.44151 120.62414 136.43321 118.41693 137.94336 115.80078 C 140.1531 111.97317 141.32393 107.45148 141.30859 101.98828 L 141.24609 79.705078 z M 169.58008 91.458984 C 167.35581 91.443467 164.81144 92.19441 162.11328 93.751953 C 153.39097 98.78799 146.54669 110.139 146.57422 120.16211 C 146.59284 126.4633 148.72259 129.20804 151.92383 130.99219 L 154.11914 127.14062 C 151.35083 125.40341 149.74354 123.20371 149.73047 118.44336 C 149.70847 110.80043 155.17585 101.82902 162.20898 97.767578 C 169.24912 93.702966 174.65964 96.346235 174.68164 104.03711 C 174.69502 108.74952 172.98049 113.02077 170.57031 117.33984 L 173.08008 118.57812 C 175.92002 113.4584 177.85549 108.56485 177.83789 102.26367 C 177.81813 95.2356 174.47346 91.493124 169.58008 91.458984 z M 132.85352 96.300781 L 132.87695 104.11914 C 132.8882 107.72149 131.70314 110.26975 129.65234 111.45312 L 129.54883 111.51172 C 127.33143 112.79232 126.24911 111.36293 126.23828 107.70508 L 126.2168 100.13281 L 132.85352 96.300781 z M 118.87109 104.375 L 118.89648 113.55859 C 118.90898 117.59184 117.56537 120.23237 115.50781 121.41992 L 115.4043 121.48047 C 113.1878 122.76041 111.94262 121.36498 111.93359 117.70703 L 111.90625 108.39648 L 118.87109 104.375 z M 177.35742 116.70898 L 174.20898 118.52734 L 174.24219 130.1875 L 147.16992 145.81836 L 147.18164 149.78711 L 174.25391 134.15625 L 174.28516 145.80859 L 177.43359 143.99219 L 177.35742 116.70898 z M 141.38477 129.03711 L 103.58203 150.86328 L 103.68359 186.11523 L 112.5918 180.9707 L 112.52539 157.63477 L 118.52539 154.17188 L 118.58398 175.02539 L 126.84766 170.25391 L 126.78906 149.40039 L 132.50781 146.09766 L 132.57422 169.12305 L 141.48438 163.97852 L 141.38477 129.03711 z "
       transform="matrix(0.80000005,0,0,-0.80000005,117.55251,539.2591)"
       id="path4346" /><path
       d="m 190.9331,396.55301 -50.88054,29.56854 -0.16721,58.84857 50.88017,-29.56853 0.16758,-58.84858 z"
       style="fill:#373535;fill-opacity:1;fill-rule:nonzero;stroke:#373535;stroke-width:0.45119658;stroke-linecap:butt;stroke-linejoin:miter;stroke-miterlimit:2.61312604;stroke-dasharray:none;stroke-opacity:1"
       id="path4366"
       inkscape:connector-curvature="0" /><path
       d="m 139.93976,426.1026 50.71296,29.28031 0.16731,-58.84749 -50.88027,29.56718 z"
       style="fill:#373535;fill-opacity:1;fill-rule:nonzero;stroke:#373535;stroke-width:0.45119658;stroke-linecap:butt;stroke-linejoin:miter;stroke-miterlimit:2.61312604;stroke-dasharray:none;stroke-opacity:1"
       id="path4376"
       inkscape:connector-curvature="0" /><path
       d="m 139.93976,426.1026 -0.16748,58.84957 50.88044,-29.56926 -50.71296,-29.28031 z"
       style="fill:#373535;fill-opacity:1;fill-rule:nonzero;stroke:#373535;stroke-width:0.45119658;stroke-linecap:butt;stroke-linejoin:miter;stroke-miterlimit:2.61312604;stroke-dasharray:none;stroke-opacity:1"
       id="path4378"
       inkscape:connector-curvature="0" /><path
       d="m 139.95339,426.30347 50.71287,29.28022 0.1673,-58.84749 -50.88017,29.56727 z"
       style="fill:#676a6b;fill-opacity:1;fill-rule:nonzero;stroke:none"
       id="path4380"
       inkscape:connector-curvature="0" /><path
       d="m 139.95339,426.30347 -0.16758,58.84957 50.88045,-29.56935 -50.71287,-29.28022 z"
       style="fill:#aaa9a7;fill-opacity:1;fill-rule:nonzero;stroke:none"
       id="path4382"
       inkscape:connector-curvature="0" /></g></svg>